<svg xmlns="http://www.w3.org/2000/svg" width="1100" height="620" viewBox="0 0 1100 620"><rect width="100%" height="100%" fill="#f8fafc"/><text x="40" y="46" font-family="Segoe UI,Arial,sans-serif" font-size="26" font-weight="700" fill="#0f172a">inter-user leakage</text><text x="40" y="72" font-family="Segoe UI,Arial,sans-serif" font-size="15" fill="#475569">Canonical post-run chart materialized from the selected run&#x27;s persisted source artifacts.</text><rect x="70" y="80" width="660" height="360" rx="14" fill="#ffffff" stroke="#cbd5e1" stroke-width="1.5"/><line x1="115" y1="402" x2="706" y2="402" stroke="#94a3b8" stroke-width="1.2"/><line x1="115" y1="104" x2="115" y2="402" stroke="#94a3b8" stroke-width="1.2"/><polyline fill="none" stroke="#0f766e" stroke-width="3" points="115.0,322.9 115.0,292.5 115.0,250.0 115.0,243.9 115.0,389.8 115.0,164.8 115.0,146.6 115.0,122.2 115.0,377.7 115.0,365.5 115.0,353.3 262.5,347.3 262.5,231.7 262.5,195.2 262.5,383.8 262.5,158.7 262.5,134.4 262.5,104.0 262.5,371.6 410.0,335.1 410.0,329.0 410.0,316.9 410.0,310.8 410.0,298.6 410.0,395.9 410.0,268.2 410.0,262.1 410.0,207.4 410.0,201.3 557.5,286.4 557.5,274.3 557.5,213.5 557.5,201.3 557.5,183.1 557.5,177.0 557.5,164.8 557.5,152.7 557.5,140.5 557.5,110.1 557.5,359.4 705.0,402.0 705.0,341.2 705.0,304.7 705.0,280.4 705.0,256.0 705.0,243.9 705.0,237.8 705.0,225.6 705.0,219.6 705.0,189.1 705.0,170.9 705.0,128.3 705.0,116.2 705.0,365.5 705.0,359.4 115.0,322.9 115.0,292.5 115.0,250.0 115.0,389.8 115.0,164.8 115.0,146.6 115.0,122.2 115.0,377.7 115.0,353.3 262.5,347.3 262.5,231.7 262.5,195.2 262.5,383.8 262.5,158.7 262.5,134.4 262.5,104.0 262.5,371.6 410.0,335.1 410.0,329.0 410.0,316.9 410.0,310.8 410.0,298.6 410.0,395.9 410.0,268.2 410.0,262.1 410.0,207.4 557.5,286.4 557.5,274.3 557.5,213.5 557.5,201.3 557.5,183.1 557.5,177.0 557.5,152.7 557.5,140.5 557.5,110.1 557.5,359.4 705.0,402.0 705.0,341.2 705.0,304.7 705.0,280.4 705.0,256.0 705.0,243.9 705.0,237.8 705.0,225.6 705.0,219.6 705.0,189.1 705.0,170.9 705.0,365.5"/><circle cx="115.0" cy="322.9" r="3.5" fill="#0f766e"/><circle cx="115.0" cy="389.8" r="3.5" fill="#0f766e"/><circle cx="115.0" cy="377.7" r="3.5" fill="#0f766e"/><circle cx="262.5" cy="231.7" r="3.5" fill="#0f766e"/><circle cx="262.5" cy="134.4" r="3.5" fill="#0f766e"/><circle cx="410.0" cy="329.0" r="3.5" fill="#0f766e"/><circle cx="410.0" cy="395.9" r="3.5" fill="#0f766e"/><circle cx="410.0" cy="201.3" r="3.5" fill="#0f766e"/><circle cx="557.5" cy="201.3" r="3.5" fill="#0f766e"/><circle cx="557.5" cy="152.7" r="3.5" fill="#0f766e"/><circle cx="705.0" cy="402.0" r="3.5" fill="#0f766e"/><circle cx="705.0" cy="256.0" r="3.5" fill="#0f766e"/><circle cx="705.0" cy="219.6" r="3.5" fill="#0f766e"/><circle cx="705.0" cy="116.2" r="3.5" fill="#0f766e"/><circle cx="115.0" cy="292.5" r="3.5" fill="#0f766e"/><circle cx="115.0" cy="146.6" r="3.5" fill="#0f766e"/><circle cx="262.5" cy="347.3" r="3.5" fill="#0f766e"/><circle cx="262.5" cy="158.7" r="3.5" fill="#0f766e"/><circle cx="410.0" cy="335.1" r="3.5" fill="#0f766e"/><circle cx="410.0" cy="298.6" r="3.5" fill="#0f766e"/><circle cx="410.0" cy="207.4" r="3.5" fill="#0f766e"/><circle cx="557.5" cy="201.3" r="3.5" fill="#0f766e"/><circle cx="557.5" cy="140.5" r="3.5" fill="#0f766e"/><circle cx="705.0" cy="341.2" r="3.5" fill="#0f766e"/><circle cx="705.0" cy="243.9" r="3.5" fill="#0f766e"/><circle cx="705.0" cy="189.1" r="3.5" fill="#0f766e"/><text x="400.0" y="458" text-anchor="middle" font-family="Segoe UI,Arial,sans-serif" font-size="14" fill="#334155">cell_id</text><text x="60" y="92" font-family="Segoe UI,Arial,sans-serif" font-size="14" fill="#334155">ue_id</text><rect x="780" y="80" width="280" height="430" rx="14" fill="#ffffff" stroke="#cbd5e1" stroke-width="1.5"/><text x="798" y="112" font-family="Segoe UI,Arial,sans-serif" font-size="18" font-weight="700" fill="#0f172a">Run Summary</text><text x="798" y="140" font-family="Consolas,Segoe UI Mono,monospace" font-size="13" fill="#334155">chart=inter-user leakage</text><text x="798" y="162" font-family="Consolas,Segoe UI Mono,monospace" font-size="13" fill="#334155">section=Beamforming / Precoding / MIMO Analytics</text><text x="798" y="184" font-family="Consolas,Segoe UI Mono,monospace" font-size="13" fill="#334155">kind=analytics</text><text x="798" y="206" font-family="Consolas,Segoe UI Mono,monospace" font-size="13" fill="#334155">source_image=</text><text x="798" y="228" font-family="Consolas,Segoe UI Mono,monospace" font-size="13" fill="#334155">source_table=analytics/csv/beam_analytics.csv</text><text x="798" y="250" font-family="Consolas,Segoe UI Mono,monospace" font-size="13" fill="#334155">source_rows=103</text></svg>