<svg xmlns="http://www.w3.org/2000/svg" width="1100" height="620" viewBox="0 0 1100 620"><rect width="100%" height="100%" fill="#f8fafc"/><text x="40" y="46" font-family="Segoe UI,Arial,sans-serif" font-size="26" font-weight="700" fill="#0f172a">fairness index trend</text><text x="40" y="72" font-family="Segoe UI,Arial,sans-serif" font-size="15" fill="#475569">Per-UE throughput distribution from the runtime fairness source. This run exports a final user snapshot, not a slot-by-slot fairness timeline.</text><rect x="70" y="80" width="660" height="360" rx="14" fill="#ffffff" stroke="#cbd5e1" stroke-width="1.5"/><line x1="115" y1="402" x2="706" y2="402" stroke="#94a3b8" stroke-width="1.2"/><line x1="115" y1="104" x2="115" y2="402" stroke="#94a3b8" stroke-width="1.2"/><polyline fill="none" stroke="#0f766e" stroke-width="3" points="115.0,402.0 127.0,400.5 139.1,399.6 151.1,399.6 163.2,397.1 175.2,394.4 187.2,394.4 199.3,393.1 211.3,392.9 223.4,392.2 235.4,389.6 247.4,389.6 259.5,389.4 271.5,388.7 283.6,387.1 295.6,387.1 307.7,387.1 319.7,386.5 331.7,385.6 343.8,385.6 355.8,385.0 367.9,383.6 379.9,378.7 391.9,378.7 404.0,378.4 416.0,377.9 428.1,376.2 440.1,376.2 452.1,372.8 464.2,370.0 476.2,370.0 488.3,282.4 500.3,264.9 512.3,264.2 524.4,257.3 536.4,255.8 548.5,243.6 560.5,230.0 572.6,230.0 584.6,219.0 596.6,202.3 608.7,200.2 620.7,197.7 632.8,195.8 644.8,183.8 656.8,179.3 668.9,171.6 680.9,163.9 693.0,157.5 705.0,104.0"/><circle cx="115.0" cy="402.0" r="3.5" fill="#0f766e"/><circle cx="139.1" cy="399.6" r="3.5" fill="#0f766e"/><circle cx="163.2" cy="397.1" r="3.5" fill="#0f766e"/><circle cx="187.2" cy="394.4" r="3.5" fill="#0f766e"/><circle cx="211.3" cy="392.9" r="3.5" fill="#0f766e"/><circle cx="235.4" cy="389.6" r="3.5" fill="#0f766e"/><circle cx="259.5" cy="389.4" r="3.5" fill="#0f766e"/><circle cx="283.6" cy="387.1" r="3.5" fill="#0f766e"/><circle cx="307.7" cy="387.1" r="3.5" fill="#0f766e"/><circle cx="331.7" cy="385.6" r="3.5" fill="#0f766e"/><circle cx="355.8" cy="385.0" r="3.5" fill="#0f766e"/><circle cx="379.9" cy="378.7" r="3.5" fill="#0f766e"/><circle cx="404.0" cy="378.4" r="3.5" fill="#0f766e"/><circle cx="428.1" cy="376.2" r="3.5" fill="#0f766e"/><circle cx="452.1" cy="372.8" r="3.5" fill="#0f766e"/><circle cx="476.2" cy="370.0" r="3.5" fill="#0f766e"/><circle cx="500.3" cy="264.9" r="3.5" fill="#0f766e"/><circle cx="524.4" cy="257.3" r="3.5" fill="#0f766e"/><circle cx="548.5" cy="243.6" r="3.5" fill="#0f766e"/><circle cx="572.6" cy="230.0" r="3.5" fill="#0f766e"/><circle cx="596.6" cy="202.3" r="3.5" fill="#0f766e"/><circle cx="620.7" cy="197.7" r="3.5" fill="#0f766e"/><circle cx="644.8" cy="183.8" r="3.5" fill="#0f766e"/><circle cx="668.9" cy="171.6" r="3.5" fill="#0f766e"/><circle cx="693.0" cy="157.5" r="3.5" fill="#0f766e"/><text x="400.0" y="458" text-anchor="middle" font-family="Segoe UI,Arial,sans-serif" font-size="14" fill="#334155">UE rank (sorted by throughput)</text><text x="60" y="92" font-family="Segoe UI,Arial,sans-serif" font-size="14" fill="#334155">Throughput (Mbps)</text><rect x="780" y="80" width="280" height="430" rx="14" fill="#ffffff" stroke="#cbd5e1" stroke-width="1.5"/><text x="798" y="112" font-family="Segoe UI,Arial,sans-serif" font-size="18" font-weight="700" fill="#0f172a">Run Summary</text><text x="798" y="140" font-family="Consolas,Segoe UI Mono,monospace" font-size="13" fill="#334155">DL: Jain fairness=0.5180, mean=3.208 Mbps, p95=7.134 Mbps</text><text x="798" y="162" font-family="Consolas,Segoe UI Mono,monospace" font-size="13" fill="#334155">UL: Jain fairness=0.3868, mean=8.902 Mbps, p95=27.347 Mbps</text><text x="798" y="184" font-family="Consolas,Segoe UI Mono,monospace" font-size="13" fill="#334155">Combined: Jain fairness=0.4989, mean=12.110 Mbps, p95=32.684 Mbps</text></svg>