<svg xmlns="http://www.w3.org/2000/svg" width="1100" height="620" viewBox="0 0 1100 620"><rect width="100%" height="100%" fill="#f8fafc"/><text x="40" y="46" font-family="Segoe UI,Arial,sans-serif" font-size="26" font-weight="700" fill="#0f172a">per-layer SINR</text><text x="40" y="72" font-family="Segoe UI,Arial,sans-serif" font-size="15" fill="#475569">Canonical post-run chart materialized from the selected run&#x27;s persisted source artifacts.</text><rect x="70" y="80" width="660" height="360" rx="14" fill="#ffffff" stroke="#cbd5e1" stroke-width="1.5"/><line x1="115" y1="402" x2="706" y2="402" stroke="#94a3b8" stroke-width="1.2"/><line x1="115" y1="104" x2="115" y2="402" stroke="#94a3b8" stroke-width="1.2"/><polyline fill="none" stroke="#0f766e" stroke-width="3" points="115.0,302.7 115.0,203.3 115.0,302.7 115.0,104.0 115.0,104.0 115.0,104.0 115.0,104.0 115.0,104.0 115.0,104.0 115.0,104.0 115.0,104.0 262.5,104.0 262.5,104.0 262.5,104.0 262.5,104.0 262.5,104.0 262.5,104.0 262.5,203.3 262.5,302.7 410.0,104.0 410.0,104.0 410.0,203.3 410.0,104.0 410.0,302.7 410.0,104.0 410.0,104.0 410.0,104.0 410.0,104.0 410.0,104.0 557.5,104.0 557.5,104.0 557.5,104.0 557.5,104.0 557.5,104.0 557.5,302.7 557.5,104.0 557.5,104.0 557.5,104.0 557.5,104.0 557.5,104.0 705.0,104.0 705.0,203.3 705.0,104.0 705.0,104.0 705.0,104.0 705.0,402.0 705.0,104.0 705.0,104.0 705.0,203.3 705.0,104.0 705.0,104.0 705.0,203.3 705.0,104.0 705.0,104.0 705.0,104.0 115.0,402.0 115.0,402.0 115.0,402.0 115.0,402.0 115.0,402.0 115.0,402.0 115.0,402.0 115.0,402.0 115.0,402.0 262.5,402.0 262.5,402.0 262.5,402.0 262.5,402.0 262.5,402.0 262.5,402.0 262.5,402.0 262.5,402.0 410.0,402.0 410.0,402.0 410.0,402.0 410.0,402.0 410.0,402.0 410.0,402.0 410.0,402.0 410.0,402.0 410.0,402.0 557.5,402.0 557.5,402.0 557.5,402.0 557.5,402.0 557.5,402.0 557.5,402.0 557.5,402.0 557.5,402.0 557.5,402.0 557.5,402.0 705.0,402.0 705.0,402.0 705.0,402.0 705.0,402.0 705.0,402.0 705.0,402.0 705.0,402.0 705.0,402.0 705.0,402.0 705.0,402.0 705.0,402.0 705.0,402.0"/><circle cx="115.0" cy="302.7" r="3.5" fill="#0f766e"/><circle cx="115.0" cy="104.0" r="3.5" fill="#0f766e"/><circle cx="115.0" cy="104.0" r="3.5" fill="#0f766e"/><circle cx="262.5" cy="104.0" r="3.5" fill="#0f766e"/><circle cx="262.5" cy="104.0" r="3.5" fill="#0f766e"/><circle cx="410.0" cy="104.0" r="3.5" fill="#0f766e"/><circle cx="410.0" cy="104.0" r="3.5" fill="#0f766e"/><circle cx="410.0" cy="104.0" r="3.5" fill="#0f766e"/><circle cx="557.5" cy="104.0" r="3.5" fill="#0f766e"/><circle cx="557.5" cy="104.0" r="3.5" fill="#0f766e"/><circle cx="705.0" cy="104.0" r="3.5" fill="#0f766e"/><circle cx="705.0" cy="104.0" r="3.5" fill="#0f766e"/><circle cx="705.0" cy="203.3" r="3.5" fill="#0f766e"/><circle cx="705.0" cy="104.0" r="3.5" fill="#0f766e"/><circle cx="115.0" cy="402.0" r="3.5" fill="#0f766e"/><circle cx="115.0" cy="402.0" r="3.5" fill="#0f766e"/><circle cx="262.5" cy="402.0" r="3.5" fill="#0f766e"/><circle cx="262.5" cy="402.0" r="3.5" fill="#0f766e"/><circle cx="410.0" cy="402.0" r="3.5" fill="#0f766e"/><circle cx="410.0" cy="402.0" r="3.5" fill="#0f766e"/><circle cx="410.0" cy="402.0" r="3.5" fill="#0f766e"/><circle cx="557.5" cy="402.0" r="3.5" fill="#0f766e"/><circle cx="557.5" cy="402.0" r="3.5" fill="#0f766e"/><circle cx="705.0" cy="402.0" r="3.5" fill="#0f766e"/><circle cx="705.0" cy="402.0" r="3.5" fill="#0f766e"/><circle cx="705.0" cy="402.0" r="3.5" fill="#0f766e"/><text x="400.0" y="458" text-anchor="middle" font-family="Segoe UI,Arial,sans-serif" font-size="14" fill="#334155">cell_id</text><text x="60" y="92" font-family="Segoe UI,Arial,sans-serif" font-size="14" fill="#334155">mean_precoding_layers</text><rect x="780" y="80" width="280" height="430" rx="14" fill="#ffffff" stroke="#cbd5e1" stroke-width="1.5"/><text x="798" y="112" font-family="Segoe UI,Arial,sans-serif" font-size="18" font-weight="700" fill="#0f172a">Run Summary</text><text x="798" y="140" font-family="Consolas,Segoe UI Mono,monospace" font-size="13" fill="#334155">chart=per-layer SINR</text><text x="798" y="162" font-family="Consolas,Segoe UI Mono,monospace" font-size="13" fill="#334155">section=Beamforming / Precoding / MIMO Analytics</text><text x="798" y="184" font-family="Consolas,Segoe UI Mono,monospace" font-size="13" fill="#334155">kind=analytics</text><text x="798" y="206" font-family="Consolas,Segoe UI Mono,monospace" font-size="13" fill="#334155">source_image=</text><text x="798" y="228" font-family="Consolas,Segoe UI Mono,monospace" font-size="13" fill="#334155">source_table=analytics/csv/beam_analytics.csv</text><text x="798" y="250" font-family="Consolas,Segoe UI Mono,monospace" font-size="13" fill="#334155">source_rows=103</text></svg>