<svg xmlns="http://www.w3.org/2000/svg" width="1100" height="620" viewBox="0 0 1100 620"><rect width="100%" height="100%" fill="#f8fafc"/><text x="40" y="46" font-family="Segoe UI,Arial,sans-serif" font-size="26" font-weight="700" fill="#0f172a">rank distribution</text><text x="40" y="72" font-family="Segoe UI,Arial,sans-serif" font-size="15" fill="#475569">Canonical post-run chart materialized from the selected run&#x27;s persisted source artifacts.</text><rect x="70" y="80" width="660" height="360" rx="14" fill="#ffffff" stroke="#cbd5e1" stroke-width="1.5"/><line x1="115" y1="402" x2="706" y2="402" stroke="#94a3b8" stroke-width="1.2"/><line x1="115" y1="104" x2="115" y2="402" stroke="#94a3b8" stroke-width="1.2"/><rect x="125.0" y="122.0" width="39.2" height="280.0" fill="#0f766e" opacity="0.88"/><rect x="181.0" y="402.0" width="39.2" height="0.0" fill="#0f766e" opacity="0.88"/><rect x="237.0" y="402.0" width="39.2" height="0.0" fill="#0f766e" opacity="0.88"/><rect x="293.0" y="402.0" width="39.2" height="0.0" fill="#0f766e" opacity="0.88"/><rect x="349.0" y="402.0" width="39.2" height="0.0" fill="#0f766e" opacity="0.88"/><rect x="405.0" y="402.0" width="39.2" height="0.0" fill="#0f766e" opacity="0.88"/><rect x="461.0" y="402.0" width="39.2" height="0.0" fill="#0f766e" opacity="0.88"/><rect x="517.0" y="402.0" width="39.2" height="0.0" fill="#0f766e" opacity="0.88"/><rect x="573.0" y="402.0" width="39.2" height="0.0" fill="#0f766e" opacity="0.88"/><rect x="629.0" y="122.0" width="39.2" height="280.0" fill="#0f766e" opacity="0.88"/><text x="400.0" y="458" text-anchor="middle" font-family="Segoe UI,Arial,sans-serif" font-size="14" fill="#334155">SampleCount</text><text x="60" y="92" font-family="Segoe UI,Arial,sans-serif" font-size="14" fill="#334155">Count</text><rect x="780" y="80" width="280" height="430" rx="14" fill="#ffffff" stroke="#cbd5e1" stroke-width="1.5"/><text x="798" y="112" font-family="Segoe UI,Arial,sans-serif" font-size="18" font-weight="700" fill="#0f172a">Run Summary</text><text x="798" y="140" font-family="Consolas,Segoe UI Mono,monospace" font-size="13" fill="#334155">chart=rank distribution</text><text x="798" y="162" font-family="Consolas,Segoe UI Mono,monospace" font-size="13" fill="#334155">section=Beamforming / Precoding / MIMO / Massive MIMO</text><text x="798" y="184" font-family="Consolas,Segoe UI Mono,monospace" font-size="13" fill="#334155">kind=reports</text><text x="798" y="206" font-family="Consolas,Segoe UI Mono,monospace" font-size="13" fill="#334155">source_image=</text><text x="798" y="228" font-family="Consolas,Segoe UI Mono,monospace" font-size="13" fill="#334155">source_table=reports/csv/live_beam_selection_table.csv</text><text x="798" y="250" font-family="Consolas,Segoe UI Mono,monospace" font-size="13" fill="#334155">source_rows=18</text></svg>