<svg xmlns="http://www.w3.org/2000/svg" width="1100" height="620" viewBox="0 0 1100 620"><rect width="100%" height="100%" fill="#f8fafc"/><text x="40" y="46" font-family="Segoe UI,Arial,sans-serif" font-size="26" font-weight="700" fill="#0f172a">PRACH peak search timeline</text><text x="40" y="72" font-family="Segoe UI,Arial,sans-serif" font-size="15" fill="#475569">Canonical post-run chart materialized from the selected run&#x27;s persisted source artifacts.</text><rect x="70" y="80" width="660" height="360" rx="14" fill="#ffffff" stroke="#cbd5e1" stroke-width="1.5"/><line x1="115" y1="402" x2="706" y2="402" stroke="#94a3b8" stroke-width="1.2"/><line x1="115" y1="104" x2="115" y2="402" stroke="#94a3b8" stroke-width="1.2"/><polyline fill="none" stroke="#0f766e" stroke-width="3" points="115.0,402.0 115.0,364.8 115.0,327.5 115.0,290.3 115.0,253.0 115.0,215.8 115.0,178.5 115.0,141.2 115.0,104.0 115.0,402.0 115.0,364.8 115.0,327.5 115.0,290.3 115.0,253.0 115.0,215.8 115.0,178.5 115.0,141.2 115.0,104.0 115.0,402.0 115.0,364.8 115.0,327.5 115.0,290.3 115.0,253.0 115.0,215.8 115.0,178.5 115.0,141.2 115.0,104.0 115.0,402.0 115.0,364.8 115.0,327.5 115.0,290.3 115.0,253.0 115.0,215.8 115.0,178.5 115.0,141.2 115.0,104.0 115.0,402.0 115.0,364.8 115.0,327.5 115.0,290.3 115.0,253.0 115.0,215.8 115.0,178.5 115.0,141.2 115.0,104.0 115.0,402.0 115.0,364.8 115.0,327.5 115.0,290.3 115.0,253.0"/><circle cx="115.0" cy="402.0" r="3.5" fill="#0f766e"/><circle cx="115.0" cy="327.5" r="3.5" fill="#0f766e"/><circle cx="115.0" cy="253.0" r="3.5" fill="#0f766e"/><circle cx="115.0" cy="178.5" r="3.5" fill="#0f766e"/><circle cx="115.0" cy="104.0" r="3.5" fill="#0f766e"/><circle cx="115.0" cy="364.8" r="3.5" fill="#0f766e"/><circle cx="115.0" cy="290.3" r="3.5" fill="#0f766e"/><circle cx="115.0" cy="215.8" r="3.5" fill="#0f766e"/><circle cx="115.0" cy="141.2" r="3.5" fill="#0f766e"/><circle cx="115.0" cy="402.0" r="3.5" fill="#0f766e"/><circle cx="115.0" cy="327.5" r="3.5" fill="#0f766e"/><circle cx="115.0" cy="253.0" r="3.5" fill="#0f766e"/><circle cx="115.0" cy="178.5" r="3.5" fill="#0f766e"/><circle cx="115.0" cy="104.0" r="3.5" fill="#0f766e"/><circle cx="115.0" cy="364.8" r="3.5" fill="#0f766e"/><circle cx="115.0" cy="290.3" r="3.5" fill="#0f766e"/><circle cx="115.0" cy="215.8" r="3.5" fill="#0f766e"/><circle cx="115.0" cy="141.2" r="3.5" fill="#0f766e"/><circle cx="115.0" cy="402.0" r="3.5" fill="#0f766e"/><circle cx="115.0" cy="327.5" r="3.5" fill="#0f766e"/><circle cx="115.0" cy="253.0" r="3.5" fill="#0f766e"/><circle cx="115.0" cy="178.5" r="3.5" fill="#0f766e"/><circle cx="115.0" cy="104.0" r="3.5" fill="#0f766e"/><circle cx="115.0" cy="364.8" r="3.5" fill="#0f766e"/><circle cx="115.0" cy="290.3" r="3.5" fill="#0f766e"/><text x="400.0" y="458" text-anchor="middle" font-family="Segoe UI,Arial,sans-serif" font-size="14" fill="#334155">Frame</text><text x="60" y="92" font-family="Segoe UI,Arial,sans-serif" font-size="14" fill="#334155">TimingError_samples</text><rect x="780" y="80" width="280" height="430" rx="14" fill="#ffffff" stroke="#cbd5e1" stroke-width="1.5"/><text x="798" y="112" font-family="Segoe UI,Arial,sans-serif" font-size="18" font-weight="700" fill="#0f172a">Run Summary</text><text x="798" y="140" font-family="Consolas,Segoe UI Mono,monospace" font-size="13" fill="#334155">chart=PRACH peak search timeline</text><text x="798" y="162" font-family="Consolas,Segoe UI Mono,monospace" font-size="13" fill="#334155">section=PRACH / Random Access</text><text x="798" y="184" font-family="Consolas,Segoe UI Mono,monospace" font-size="13" fill="#334155">kind=reports</text><text x="798" y="206" font-family="Consolas,Segoe UI Mono,monospace" font-size="13" fill="#334155">source_image=</text><text x="798" y="228" font-family="Consolas,Segoe UI Mono,monospace" font-size="13" fill="#334155">source_table=reports/csv/prach_correlation_traces.csv</text><text x="798" y="250" font-family="Consolas,Segoe UI Mono,monospace" font-size="13" fill="#334155">source_rows=50</text></svg>