<svg xmlns="http://www.w3.org/2000/svg" width="1100" height="620" viewBox="0 0 1100 620"><rect width="100%" height="100%" fill="#f8fafc"/><text x="40" y="46" font-family="Segoe UI,Arial,sans-serif" font-size="26" font-weight="700" fill="#0f172a">SR/BSR event timeline</text><text x="40" y="72" font-family="Segoe UI,Arial,sans-serif" font-size="15" fill="#475569">Canonical post-run chart materialized from the selected run&#x27;s persisted source artifacts.</text><rect x="70" y="80" width="660" height="360" rx="14" fill="#ffffff" stroke="#cbd5e1" stroke-width="1.5"/><line x1="115" y1="402" x2="706" y2="402" stroke="#94a3b8" stroke-width="1.2"/><line x1="115" y1="104" x2="115" y2="402" stroke="#94a3b8" stroke-width="1.2"/><polyline fill="none" stroke="#0f766e" stroke-width="3" points="115.0,104.0 115.0,104.0 115.0,104.0 115.0,104.0 115.0,104.0 115.0,104.0 115.0,104.0 115.0,104.0 115.0,104.0 115.0,104.0 115.0,104.0 115.0,104.0 115.0,104.0 115.0,104.0 115.0,104.0 115.0,104.0 115.0,104.0 115.0,104.0 115.0,104.0 115.0,104.0 115.0,104.0 115.0,104.0 115.0,104.0 115.0,104.0 115.0,104.0 115.0,104.0 115.0,104.0 115.0,104.0 115.0,104.0 115.0,104.0 115.0,104.0 115.0,104.0 115.0,104.0 115.0,104.0 115.0,104.0 115.0,104.0 115.0,104.0 115.0,104.0 115.0,104.0 115.0,104.0 115.0,104.0 115.0,104.0 115.0,104.0 115.0,104.0 115.0,104.0 115.0,104.0 115.0,104.0 115.0,104.0 115.0,104.0 115.0,104.0 115.0,104.0 115.0,243.1 115.0,104.0 115.0,123.9 115.0,104.0 115.0,203.3 115.0,104.0 115.0,282.8 115.0,104.0 115.0,104.0 115.0,104.0 115.0,104.0 115.0,143.7 115.0,104.0 115.0,104.0 115.0,104.0 115.0,104.0 115.0,123.9 115.0,104.0 115.0,104.0 115.0,104.0 115.0,104.0 115.0,104.0 115.0,104.0 115.0,104.0 115.0,104.0 115.0,104.0 115.0,203.3 115.0,104.0 115.0,104.0 115.0,104.0 115.0,123.9 115.0,104.0 115.0,104.0 115.0,123.9 115.0,104.0 115.0,104.0 115.0,104.0 115.0,104.0 115.0,104.0 115.0,322.5 115.0,262.9 115.0,262.9 115.0,104.0 115.0,104.0 115.0,104.0 115.0,104.0 115.0,104.0 115.0,104.0 115.0,104.0 115.0,104.0 115.0,104.0 115.0,104.0 115.0,104.0 115.0,163.6 115.0,223.2 115.0,402.0 115.0,382.1 115.0,143.7 115.0,104.0 115.0,104.0 115.0,183.5 115.0,104.0 115.0,402.0 115.0,104.0 115.0,262.9 115.0,342.4 115.0,104.0 115.0,104.0 115.0,104.0 115.0,262.9 115.0,104.0 115.0,104.0 115.0,262.9 115.0,163.6 115.0,223.2 115.0,104.0 115.0,104.0 115.0,163.6 115.0,262.9 115.0,322.5 115.0,362.3 115.0,123.9 115.0,203.3 115.0,104.0 115.0,183.5 115.0,104.0 115.0,104.0 115.0,163.6 115.0,203.3 115.0,282.8 115.0,322.5 115.0,104.0 115.0,262.9 115.0,163.6 115.0,203.3 115.0,243.1 115.0,362.3 115.0,104.0 115.0,342.4 115.0,104.0 115.0,104.0 115.0,104.0 115.0,104.0 115.0,104.0 115.0,104.0 115.0,104.0 115.0,104.0 115.0,104.0 115.0,104.0 115.0,104.0 115.0,104.0 115.0,104.0 115.0,104.0 115.0,104.0 115.0,104.0 115.0,104.0 115.0,104.0 115.0,104.0 115.0,104.0 115.0,104.0 115.0,104.0 115.0,104.0 115.0,104.0 115.0,104.0 115.0,104.0 115.0,104.0 115.0,104.0 115.0,104.0 115.0,104.0"/><circle cx="115.0" cy="104.0" r="3.5" fill="#0f766e"/><circle cx="115.0" cy="104.0" r="3.5" fill="#0f766e"/><circle cx="115.0" cy="104.0" r="3.5" fill="#0f766e"/><circle cx="115.0" cy="104.0" r="3.5" fill="#0f766e"/><circle cx="115.0" cy="104.0" r="3.5" fill="#0f766e"/><circle cx="115.0" cy="104.0" r="3.5" fill="#0f766e"/><circle cx="115.0" cy="104.0" r="3.5" fill="#0f766e"/><circle cx="115.0" cy="104.0" r="3.5" fill="#0f766e"/><circle cx="115.0" cy="104.0" r="3.5" fill="#0f766e"/><circle cx="115.0" cy="104.0" r="3.5" fill="#0f766e"/><circle cx="115.0" cy="104.0" r="3.5" fill="#0f766e"/><circle cx="115.0" cy="203.3" r="3.5" fill="#0f766e"/><circle cx="115.0" cy="123.9" r="3.5" fill="#0f766e"/><circle cx="115.0" cy="262.9" r="3.5" fill="#0f766e"/><circle cx="115.0" cy="104.0" r="3.5" fill="#0f766e"/><circle cx="115.0" cy="223.2" r="3.5" fill="#0f766e"/><circle cx="115.0" cy="104.0" r="3.5" fill="#0f766e"/><circle cx="115.0" cy="104.0" r="3.5" fill="#0f766e"/><circle cx="115.0" cy="104.0" r="3.5" fill="#0f766e"/><circle cx="115.0" cy="203.3" r="3.5" fill="#0f766e"/><circle cx="115.0" cy="282.8" r="3.5" fill="#0f766e"/><circle cx="115.0" cy="362.3" r="3.5" fill="#0f766e"/><circle cx="115.0" cy="104.0" r="3.5" fill="#0f766e"/><circle cx="115.0" cy="104.0" r="3.5" fill="#0f766e"/><circle cx="115.0" cy="104.0" r="3.5" fill="#0f766e"/><circle cx="115.0" cy="104.0" r="3.5" fill="#0f766e"/><text x="400.0" y="458" text-anchor="middle" font-family="Segoe UI,Arial,sans-serif" font-size="14" fill="#334155">frame</text><text x="60" y="92" font-family="Segoe UI,Arial,sans-serif" font-size="14" fill="#334155">wideband_cqi</text><rect x="780" y="80" width="280" height="430" rx="14" fill="#ffffff" stroke="#cbd5e1" stroke-width="1.5"/><text x="798" y="112" font-family="Segoe UI,Arial,sans-serif" font-size="18" font-weight="700" fill="#0f172a">Run Summary</text><text x="798" y="140" font-family="Consolas,Segoe UI Mono,monospace" font-size="13" fill="#334155">chart=SR/BSR event timeline</text><text x="798" y="162" font-family="Consolas,Segoe UI Mono,monospace" font-size="13" fill="#334155">section=Scheduler / MAC / Queue / QoS / Power Control / UCI Flow</text><text x="798" y="184" font-family="Consolas,Segoe UI Mono,monospace" font-size="13" fill="#334155">kind=reports</text><text x="798" y="206" font-family="Consolas,Segoe UI Mono,monospace" font-size="13" fill="#334155">source_image=</text><text x="798" y="228" font-family="Consolas,Segoe UI Mono,monospace" font-size="13" fill="#334155">source_table=reports/csv/live_scheduler_cycle.csv</text><text x="798" y="250" font-family="Consolas,Segoe UI Mono,monospace" font-size="13" fill="#334155">source_rows=246</text></svg>